<?xml version="1.0" encoding="UTF-8"?>
<svg width="18px" height="22px" viewBox="0 0 18 22" version="1.1" xmlns="http://www.w3.org/2000/svg" xmlns:xlink="http://www.w3.org/1999/xlink">
    <!-- Generator: Sketch 63.1 (92452) - https://sketch.com -->
    <title>logo_bluestone</title>
    <desc>Created with Sketch.</desc>
    <g id="2.2-确认移动端和首页主结构" stroke="none" stroke-width="1" fill="none" fill-rule="evenodd">
        <g id="4.0.dialogue.failed" transform="translate(-178.000000, -227.000000)">
            <rect fill="#FFFFFF" x="0" y="0" width="375" height="812"></rect>
            <rect id="矩形" fill="#000000" fill-rule="nonzero" opacity="0.800000012" x="0" y="88" width="375" height="724"></rect>
            <g id="编组-4" transform="translate(40.000000, 206.000000)" fill-rule="nonzero">
                <rect id="矩形" fill="#FFFFFF" x="0" y="0" width="295" height="400"></rect>
                <g id="logo_bluestone" transform="translate(138.000000, 20.000000)">
                    <path d="M11.2649111,1.75497035 L15.2649111,3.08830369 C16.8982796,3.63275987 18,5.16131525 18,6.88303688 L18,16.4502965 C18,18.6594355 16.209139,20.4502965 14,20.4502965 C13.5700716,20.4502965 13.1429548,20.3809849 12.7350889,20.2450296 L8.73508894,18.9116963 C7.10172038,18.3672401 6,16.8386848 6,15.1169631 L6,5.54970355 C6,3.34056455 7.790861,1.54970355 10,1.54970355 C10.4299284,1.54970355 10.8570452,1.61901506 11.2649111,1.75497035 Z" id="矩形备份" fill="#D9D9D9"></path>
                    <path d="M5.26491106,3.75497035 L9.26491106,5.08830369 C10.8982796,5.63275987 12,7.16131525 12,8.88303688 L12,18.4502965 C12,20.6594355 10.209139,22.4502965 8,22.4502965 C7.57007162,22.4502965 7.14295481,22.3809849 6.73508894,22.2450296 L2.73508894,20.9116963 C1.10172038,20.3672401 3.34430509e-16,18.8386848 0,17.1169631 L0,7.54970355 C-2.705415e-16,5.34056455 1.790861,3.54970355 4,3.54970355 C4.42992838,3.54970355 4.85704519,3.61901506 5.26491106,3.75497035 Z" id="矩形" fill="#D9D9D9"></path>
                    <path d="M6.27420626,4.09126584 L9.26491106,5.08830369 C10.8982796,5.63275987 12,7.16131525 12,8.88303688 L12,18.4502965 C12,18.9646654 11.9029121,19.4563583 11.726062,19.9080492 L8.73508894,18.9116963 C7.10172038,18.3672401 6,16.8386848 6,15.1169631 L6,5.54970355 C6,5.03507458 6.09718612,4.54314464 6.27420626,4.09126584 Z" id="形状结合" fill="#BFBFBF"></path>
                </g>
            </g>
        </g>
    </g>
</svg>