<?xml version="1.0" encoding="UTF-8"?>
<svg width="20px" height="20px" viewBox="0 0 20 20" version="1.1" xmlns="http://www.w3.org/2000/svg" xmlns:xlink="http://www.w3.org/1999/xlink">
    <!-- Generator: Sketch 57.1 (83088) - https://sketch.com -->
    <title>icon/coin/usdc</title>
    <desc>Created with Sketch.</desc>
    <defs>
        <linearGradient x1="50%" y1="-24.5295235%" x2="50%" y2="100%" id="linearGradient-1">
            <stop stop-color="#4FADE7" offset="0%"></stop>
            <stop stop-color="#2775CA" offset="100%"></stop>
        </linearGradient>
    </defs>
    <g id="icon/coin/usdc" stroke="none" stroke-width="1" fill="none" fill-rule="evenodd">
        <path d="M10,0.8 C15.0810197,0.8 19.2,4.9189803 19.2,10 C19.2,15.0810197 15.0810197,19.2 10,19.2 C4.9189803,19.2 0.8,15.0810197 0.8,10 C0.8,4.9189803 4.9189803,0.8 10,0.8 Z M12.3605438,3.48238797 C12.0172108,3.35869445 11.638611,3.53674744 11.5149175,3.88008044 C11.391224,4.22341345 11.569277,4.60201325 11.91261,4.72570677 C14.1319882,5.52528821 15.641989,7.63734603 15.641989,10.0354465 C15.641989,12.4354666 14.1295709,14.5488489 11.9076261,15.3469791 C11.5641761,15.4703475 11.3857648,15.8487786 11.5091332,16.1922285 C11.6325016,16.5356785 12.0109327,16.7140898 12.3543826,16.5907214 C15.0970999,15.6055279 16.9635359,12.9974575 16.9635359,10.0354465 C16.9635359,7.07580799 15.1000803,4.46936825 12.3605438,3.48238797 Z M8.45738531,3.88694135 C8.33213561,3.54417299 7.95273201,3.36783926 7.60996365,3.49308896 C4.88567355,4.48856153 3.03646409,7.08717325 3.03646409,10.0354465 C3.03646409,12.9922543 4.8963668,15.596747 7.63210734,16.5858527 C7.97530039,16.709934 8.35410109,16.5323088 8.47818238,16.1891158 C8.60226368,15.8459227 8.4246385,15.467122 8.08144544,15.3430407 C5.86513021,14.541733 4.35801105,12.4312566 4.35801105,10.0354465 C4.35801105,7.64654198 5.85645729,5.5408422 8.06353292,4.73436302 C8.40630129,4.60911332 8.58263501,4.22970972 8.45738531,3.88694135 Z M10.4454358,5.52725179 L9.58337107,5.52725179 C9.54289834,5.52725179 9.50849704,5.53928751 9.48016613,5.56335932 C9.45183523,5.58743112 9.43766998,5.61666073 9.43766998,5.65104902 L9.43766998,5.65104902 L9.4619535,6.37319949 C9.4619535,6.40071012 9.44171744,6.42134279 9.40124471,6.4350981 C8.81843744,6.51763 8.35705528,6.72395664 8.01708437,7.05408423 C7.67711347,7.38421181 7.50713057,7.80374265 7.50713057,8.31268934 C7.50713057,8.69783819 7.60628726,9.02452204 7.80460362,9.2927507 C8.00291998,9.56097936 8.24777631,9.78106111 8.53917994,9.95300256 C8.83058357,10.124944 9.21911592,10.3209543 9.70478864,10.5410394 C10.125705,10.7336138 10.4393639,10.8866394 10.6457748,11.0001208 C10.8521857,11.1136021 11.010027,11.2373981 11.1193034,11.3715124 C11.2285797,11.5056268 11.2832171,11.6655299 11.2832171,11.8512267 C11.2832171,12.1194553 11.1820368,12.3360983 10.9796732,12.5011621 C10.7773095,12.6662259 10.4940047,12.7487565 10.1297502,12.7487565 C9.72502288,12.7487565 9.40326953,12.6559096 9.16448044,12.4702128 C8.92569135,12.284516 8.8062986,12.0438016 8.8062986,11.7480623 L8.8062986,11.7480623 L8.8062986,11.5417336 C8.8062986,11.5073453 8.79213336,11.4781157 8.76380245,11.4540439 C8.73547154,11.4299721 8.70107024,11.4179364 8.66059751,11.4179364 L8.66059751,11.4179364 L7.60426462,11.4179364 C7.5637919,11.4179364 7.5293906,11.4299721 7.50105969,11.4540439 C7.47272878,11.4781157 7.45856354,11.5073453 7.45856354,11.5417336 L7.45856354,11.5417336 L7.45856354,11.8099609 C7.45856354,12.31203 7.63259365,12.7332802 7.9806591,13.0737243 C8.32872455,13.4141683 8.80629557,13.6325307 9.41338647,13.7288179 C9.4538592,13.7425732 9.47409526,13.7632059 9.47409526,13.7907165 L9.47409526,13.7907165 L9.4619535,14.4509684 C9.4619535,14.4853567 9.47611874,14.5145863 9.50444965,14.5386581 C9.53278056,14.5627299 9.56718186,14.5747656 9.60765459,14.5747656 L9.60765459,14.5747656 L10.4697194,14.5747656 C10.5101921,14.5747656 10.5445934,14.5627299 10.5729243,14.5386581 C10.6012552,14.5145863 10.6154204,14.4853567 10.6154204,14.4509684 L10.6154204,14.4509684 L10.6032787,13.801033 C10.6032787,13.7735223 10.6235147,13.7528897 10.6639875,13.7391343 C11.2710784,13.6566024 11.7526966,13.4433982 12.1088566,13.0995153 C12.4650166,12.7556324 12.6430939,12.3223465 12.6430939,11.7996445 C12.6430939,11.4351286 12.550008,11.127358 12.3638335,10.8763235 C12.177659,10.625289 11.9510151,10.4189624 11.6838951,10.2573374 C11.4167751,10.0957124 10.9999123,9.87735008 10.4332941,9.60224376 C10.0123777,9.416547 9.69669519,9.26524079 9.48623701,9.1483206 C9.27577883,9.03140042 9.11996117,8.90760443 9.01877935,8.77692893 C8.91759754,8.64625343 8.86700739,8.48806967 8.86700739,8.3023729 C8.86700739,8.02726659 8.96414048,7.812343 9.15840956,7.65759569 C9.35267865,7.50284839 9.61979464,7.4254759 9.95976555,7.4254759 C10.3483037,7.4254759 10.6579154,7.52176167 10.88861,7.71433609 C11.1193045,7.90691051 11.2346501,8.15106371 11.2346501,8.446803 L11.2346501,8.446803 L11.2346501,8.64281527 C11.2346501,8.67720356 11.2488153,8.70643317 11.2771462,8.73050497 C11.3054771,8.75457678 11.3398784,8.7666125 11.3803512,8.7666125 L11.3803512,8.7666125 L12.436684,8.7666125 C12.4771568,8.7666125 12.5115581,8.75457678 12.539889,8.73050497 C12.5682199,8.70643317 12.5823851,8.67720356 12.5823851,8.64281527 L12.5823851,8.64281527 L12.5823851,8.42617013 C12.5823851,7.91034578 12.4063314,7.47362105 12.0542187,7.11598284 C11.702106,6.75834462 11.2265586,6.53482409 10.6275622,6.44541454 C10.5870895,6.43165922 10.5668534,6.41102656 10.5668534,6.38351593 L10.5668534,6.38351593 L10.5911369,5.65104902 C10.5911369,5.61666073 10.5769717,5.58743112 10.5486408,5.56335932 C10.5203099,5.53928751 10.4859086,5.52725179 10.4454358,5.52725179 L10.4454358,5.52725179 Z" id="Combined-Shape" fill="url(#linearGradient-1)"></path>
    </g>
</svg>